<?xml version="1.0" encoding="UTF-8" standalone="no"?>
<!DOCTYPE svg PUBLIC "-//W3C//DTD SVG 1.1//EN"
 "http://www.w3.org/Graphics/SVG/1.1/DTD/svg11.dtd">
<!-- Generated by graphviz version 12.1.0 (20240811.2233)
 -->
<!-- Pages: 1 -->
<svg width="152pt" height="155pt"
 viewBox="0.00 0.00 152.00 155.00" xmlns="http://www.w3.org/2000/svg" xmlns:xlink="http://www.w3.org/1999/xlink">
<g id="graph0" class="graph" transform="scale(1 1) rotate(0) translate(4 151)">
<polygon fill="white" stroke="none" points="-4,4 -4,-151 148,-151 148,4 -4,4"/>
<g id="clust1" class="cluster">
<title>cluster_EVOH with WeakAEX</title>
<path fill="lightgrey" stroke="lightgrey" d="M13.12,-8C13.12,-8 131.88,-8 131.88,-8 137.88,-8 143.88,-14 143.88,-20 143.88,-20 143.88,-127 143.88,-127 143.88,-133 137.88,-139 131.88,-139 131.88,-139 13.12,-139 13.12,-139 7.12,-139 1.12,-133 1.12,-127 1.12,-127 1.12,-20 1.12,-20 1.12,-14 7.12,-8 13.12,-8"/>
<text text-anchor="middle" x="72.5" y="-121.7" font-family="Times New Roman,serif" font-size="14.00">EVOH with WeakAEX</text>
</g>
<!-- 1 -->
<g id="node1" class="node">
<title>1</title>
<path fill="red" stroke="red" d="M116,-52C116,-52 28,-52 28,-52 22,-52 16,-46 16,-40 16,-40 16,-28 16,-28 16,-22 22,-16 28,-16 28,-16 116,-16 116,-16 122,-16 128,-22 128,-28 128,-28 128,-40 128,-40 128,-46 122,-52 116,-52"/>
<text text-anchor="middle" x="72" y="-28.95" font-family="Times New Roman,serif" font-size="14.00">WeakAEX in situ</text>
</g>
<!-- 2 -->
<g id="node2" class="node">
<title>2</title>
<path fill="red" stroke="red" d="M114.12,-106C114.12,-106 29.88,-106 29.88,-106 23.88,-106 17.88,-100 17.88,-94 17.88,-94 17.88,-82 17.88,-82 17.88,-76 23.88,-70 29.88,-70 29.88,-70 114.12,-70 114.12,-70 120.12,-70 126.12,-76 126.12,-82 126.12,-82 126.12,-94 126.12,-94 126.12,-100 120.12,-106 114.12,-106"/>
<text text-anchor="middle" x="72" y="-82.95" font-family="Times New Roman,serif" font-size="14.00">test_milestone_1</text>
</g>
</g>
</svg>
