<?xml version="1.0" encoding="UTF-8" standalone="no"?>
<!DOCTYPE svg PUBLIC "-//W3C//DTD SVG 1.1//EN"
 "http://www.w3.org/Graphics/SVG/1.1/DTD/svg11.dtd">
<!-- Generated by graphviz version 12.1.0 (20240811.2233)
 -->
<!-- Pages: 1 -->
<svg width="514pt" height="294pt"
 viewBox="0.00 0.00 514.00 294.00" xmlns="http://www.w3.org/2000/svg" xmlns:xlink="http://www.w3.org/1999/xlink">
<g id="graph0" class="graph" transform="scale(1 1) rotate(0) translate(4 290)">
<polygon fill="white" stroke="none" points="-4,4 -4,-290 510,-290 510,4 -4,4"/>
<g id="clust1" class="cluster">
<title>cluster_Syringe Filter</title>
<path fill="lightgrey" stroke="lightgrey" d="M20,-201C20,-201 246.38,-201 246.38,-201 252.38,-201 258.38,-207 258.38,-213 258.38,-213 258.38,-266 258.38,-266 258.38,-272 252.38,-278 246.38,-278 246.38,-278 20,-278 20,-278 14,-278 8,-272 8,-266 8,-266 8,-213 8,-213 8,-207 14,-201 20,-201"/>
<text text-anchor="middle" x="133.19" y="-260.7" font-family="Times New Roman,serif" font-size="14.00">Syringe Filter</text>
</g>
<g id="clust2" class="cluster">
<title>cluster_In Situ Reactor</title>
<path fill="lightgrey" stroke="lightgrey" d="M200.25,-8C200.25,-8 486,-8 486,-8 492,-8 498,-14 498,-20 498,-20 498,-181 498,-181 498,-187 492,-193 486,-193 486,-193 200.25,-193 200.25,-193 194.25,-193 188.25,-187 188.25,-181 188.25,-181 188.25,-20 188.25,-20 188.25,-14 194.25,-8 200.25,-8"/>
<text text-anchor="middle" x="343.12" y="-175.7" font-family="Times New Roman,serif" font-size="14.00">In Situ Reactor</text>
</g>
<!-- 1 -->
<g id="node1" class="node">
<title>1</title>
<path fill="red" stroke="red" d="M58.25,-245C58.25,-245 28,-245 28,-245 22,-245 16,-239 16,-233 16,-233 16,-221 16,-221 16,-215 22,-209 28,-209 28,-209 58.25,-209 58.25,-209 64.25,-209 70.25,-215 70.25,-221 70.25,-221 70.25,-233 70.25,-233 70.25,-239 64.25,-245 58.25,-245"/>
<text text-anchor="middle" x="43.12" y="-221.95" font-family="Times New Roman,serif" font-size="14.00">Design</text>
</g>
<!-- 2 -->
<g id="node2" class="node">
<title>2</title>
<path fill="red" stroke="red" d="M148.25,-245C148.25,-245 118.25,-245 118.25,-245 112.25,-245 106.25,-239 106.25,-233 106.25,-233 106.25,-221 106.25,-221 106.25,-215 112.25,-209 118.25,-209 118.25,-209 148.25,-209 148.25,-209 154.25,-209 160.25,-215 160.25,-221 160.25,-221 160.25,-233 160.25,-233 160.25,-239 154.25,-245 148.25,-245"/>
<text text-anchor="middle" x="133.25" y="-221.95" font-family="Times New Roman,serif" font-size="14.00">Trial 1</text>
</g>
<!-- 1&#45;&gt;2 -->
<g id="edge1" class="edge">
<title>1&#45;&gt;2</title>
<path fill="none" stroke="black" d="M70.66,-227C70.66,-227 94.37,-227 94.37,-227"/>
<polygon fill="black" stroke="black" points="94.37,-230.5 104.37,-227 94.37,-223.5 94.37,-230.5"/>
</g>
<!-- 3 -->
<g id="node3" class="node">
<title>3</title>
<path fill="red" stroke="red" d="M238.38,-245C238.38,-245 208.38,-245 208.38,-245 202.38,-245 196.38,-239 196.38,-233 196.38,-233 196.38,-221 196.38,-221 196.38,-215 202.38,-209 208.38,-209 208.38,-209 238.38,-209 238.38,-209 244.38,-209 250.38,-215 250.38,-221 250.38,-221 250.38,-233 250.38,-233 250.38,-239 244.38,-245 238.38,-245"/>
<text text-anchor="middle" x="223.38" y="-221.95" font-family="Times New Roman,serif" font-size="14.00">Trial 2</text>
</g>
<!-- 2&#45;&gt;3 -->
<g id="edge2" class="edge">
<title>2&#45;&gt;3</title>
<path fill="none" stroke="black" d="M160.29,-227C160.29,-227 184.53,-227 184.53,-227"/>
<polygon fill="black" stroke="black" points="184.53,-230.5 194.53,-227 184.53,-223.5 184.53,-230.5"/>
</g>
<!-- 5 -->
<g id="node4" class="node">
<title>5</title>
<path fill="red" stroke="red" d="M462.25,-106C462.25,-106 314.25,-106 314.25,-106 308.25,-106 302.25,-100 302.25,-94 302.25,-94 302.25,-82 302.25,-82 302.25,-76 308.25,-70 314.25,-70 314.25,-70 462.25,-70 462.25,-70 468.25,-70 474.25,-76 474.25,-82 474.25,-82 474.25,-94 474.25,-94 474.25,-100 468.25,-106 462.25,-106"/>
<text text-anchor="middle" x="388.25" y="-82.95" font-family="Times New Roman,serif" font-size="14.00">Chemistry Trial &#45; WeakAEX</text>
</g>
<!-- 3&#45;&gt;5 -->
<g id="edge3" class="edge">
<title>3&#45;&gt;5</title>
<path fill="none" stroke="black" d="M250.55,-233C271.29,-233 296.34,-233 296.34,-233 296.34,-233 296.34,-97 296.34,-97 296.34,-97 296.89,-97 296.89,-97"/>
<polygon fill="black" stroke="black" points="290.3,-100.5 300.3,-97 290.3,-93.5 290.3,-100.5"/>
</g>
<!-- 6 -->
<g id="node5" class="node">
<title>6</title>
<path fill="red" stroke="red" d="M464.88,-160C464.88,-160 311.62,-160 311.62,-160 305.62,-160 299.62,-154 299.62,-148 299.62,-148 299.62,-136 299.62,-136 299.62,-130 305.62,-124 311.62,-124 311.62,-124 464.88,-124 464.88,-124 470.88,-124 476.88,-130 476.88,-136 476.88,-136 476.88,-148 476.88,-148 476.88,-154 470.88,-160 464.88,-160"/>
<text text-anchor="middle" x="388.25" y="-136.95" font-family="Times New Roman,serif" font-size="14.00">Chemistry Trial &#45; StrongCEX</text>
</g>
<!-- 3&#45;&gt;6 -->
<g id="edge4" class="edge">
<title>3&#45;&gt;6</title>
<path fill="none" stroke="black" d="M214.38,-208.68C214.38,-185.34 214.38,-148 214.38,-148 214.38,-148 287.76,-148 287.76,-148"/>
<polygon fill="black" stroke="black" points="287.76,-151.5 297.76,-148 287.76,-144.5 287.76,-151.5"/>
</g>
<!-- 7 -->
<g id="node6" class="node">
<title>7</title>
<path fill="red" stroke="red" d="M478,-52C478,-52 298.5,-52 298.5,-52 292.5,-52 286.5,-46 286.5,-40 286.5,-40 286.5,-28 286.5,-28 286.5,-22 292.5,-16 298.5,-16 298.5,-16 478,-16 478,-16 484,-16 490,-22 490,-28 490,-28 490,-40 490,-40 490,-46 484,-52 478,-52"/>
<text text-anchor="middle" x="388.25" y="-28.95" font-family="Times New Roman,serif" font-size="14.00">Chemistry Trial &#45; Allyl/WeakAEX</text>
</g>
<!-- 3&#45;&gt;7 -->
<g id="edge5" class="edge">
<title>3&#45;&gt;7</title>
<path fill="none" stroke="black" d="M250.52,-221C270.08,-221 293.06,-221 293.06,-221 293.06,-221 293.06,-63.78 293.06,-63.78"/>
<polygon fill="black" stroke="black" points="296.56,-63.78 293.06,-53.78 289.56,-63.78 296.56,-63.78"/>
</g>
<!-- 4 -->
<g id="node7" class="node">
<title>4</title>
<path fill="red" stroke="red" d="M238.5,-106C238.5,-106 208.25,-106 208.25,-106 202.25,-106 196.25,-100 196.25,-94 196.25,-94 196.25,-82 196.25,-82 196.25,-76 202.25,-70 208.25,-70 208.25,-70 238.5,-70 238.5,-70 244.5,-70 250.5,-76 250.5,-82 250.5,-82 250.5,-94 250.5,-94 250.5,-100 244.5,-106 238.5,-106"/>
<text text-anchor="middle" x="223.38" y="-82.95" font-family="Times New Roman,serif" font-size="14.00">Design</text>
</g>
<!-- 4&#45;&gt;5 -->
<g id="edge6" class="edge">
<title>4&#45;&gt;5</title>
<path fill="none" stroke="black" d="M250.97,-88C250.97,-88 290.31,-88 290.31,-88"/>
<polygon fill="black" stroke="black" points="290.31,-91.5 300.31,-88 290.31,-84.5 290.31,-91.5"/>
</g>
<!-- 4&#45;&gt;6 -->
<g id="edge7" class="edge">
<title>4&#45;&gt;6</title>
<path fill="none" stroke="black" d="M232.38,-106.42C232.38,-119.96 232.38,-136 232.38,-136 232.38,-136 287.87,-136 287.87,-136"/>
<polygon fill="black" stroke="black" points="287.87,-139.5 297.87,-136 287.87,-132.5 287.87,-139.5"/>
</g>
<!-- 4&#45;&gt;7 -->
<g id="edge8" class="edge">
<title>4&#45;&gt;7</title>
<path fill="none" stroke="black" d="M250.77,-79C269.06,-79 289.78,-79 289.78,-79 289.78,-79 289.78,-63.82 289.78,-63.82"/>
<polygon fill="black" stroke="black" points="293.28,-63.82 289.78,-53.82 286.28,-63.82 293.28,-63.82"/>
</g>
</g>
</svg>
